<svg xmlns="http://www.w3.org/2000/svg" viewBox="0 0 291.7 871.61"><defs><style>.cls-1{fill:#fff;}</style></defs><g id="Layer_2" data-name="Layer 2"><g id="Layer_1-2" data-name="Layer 1"><path class="cls-1" d="M182,722.83c1.22-2.12,2.64-4.15,3.65-6.37,10-22.15,17.2-44.93,18.46-69.56q2.09-40.83,7.78-81.39c2.64-18.61,4.62-37.32,6.56-56,1.34-12.86,1.69-25.83,3.22-38.67,3.14-26.54,8.09-52.69,19.41-77.21,1.26-2.74,2.29-5.58,3.47-8.36.51-1.18,1.37-2.37,2.7-1.5a3,3,0,0,1,.71,2.83c-3.77,9.71-4,19.93-4.23,30.09-.44,20.53-.9,41.07-.71,61.6a225,225,0,0,1-5.74,54.92c-2.79,11.62-2.86,23.49-2.18,35.28.3,5.25,2.17,10.43,3.55,15.58a60.31,60.31,0,0,0,2.91,7.75c4.75,11.16,5.08,22.61,2.27,34.24a352.94,352.94,0,0,1-13.81,43.36c-2.43,6.39-5.91,12.05-11.42,16.33-5.31,4.13-9.28,9.47-13.15,14.89q-5,7.05-10,14.17a13.14,13.14,0,0,1-5.66,4.74A8.49,8.49,0,0,0,187,722c-2,2.48-2.35,6.16-5.5,7.94-.38.21-.35,1.27-.37,1.94-.61,25.8-1,51.6.28,77.38.79,15.5,2,31,3.2,46.47.32,4.11,1.21,8.18,1.83,12.27.08.51.38,1.12.2,1.52a13.37,13.37,0,0,1-1.45,2.08c-.65-.54-1.71-1-1.87-1.64-.62-2.69-1.11-5.41-1.46-8.14C179.26,842,178.23,822,177.64,802q-1.68-57,2-113.84c1.1-17.15,1.15-34.3,1.11-51.47,0-21.57.19-43.13.35-64.7a17.16,17.16,0,0,0-2.5-9.34c-4.09-6.8-8.09-13.65-12.17-20.45-2.84-4.74-5.82-9.39-8.61-14.15-13.51-23.07-26.86-46.24-40.54-69.21-4.77-8-10.52-15.39-15.49-23.26-7.05-11.16-14.11-22.32-20.57-33.82-7.5-13.37-11-28-11.78-43.3-1-18.91-.29-37.78.42-56.66a9.28,9.28,0,0,1,.52-3.55,4.88,4.88,0,0,1,2.49-2.51c1.53-.44,2.25,1,2.55,2.32,1.08,4.7,2.24,9.39,3.07,14.14,1.35,7.82,2.39,15.69,3.69,23.52a90.17,90.17,0,0,0,9.23,27.88c2.61,4.87,5.88,9.22,10.51,12.26,14.52,9.54,22.74,23.41,28,39.52,3.18,9.75,6.65,19.41,10.27,29A110.4,110.4,0,0,0,146.5,458a177.57,177.57,0,0,1,14.85,36.6c1.4,4.87,3.47,9.55,5.35,14.27,3.67,9.21,7.42,18.39,11.14,27.59a26.83,26.83,0,0,0,2.19,4.51,8.73,8.73,0,0,0,.17-1.52c-1.09-30.44-2.29-60.87-7.14-91-4.32-26.79-11-53-18.36-79.1-5.54-19.59-11-39.2-14.45-59.3-1.72-10.1-3.08-20.3-4-30.51-3.28-34.66-14.52-66.11-35.88-93.66a156.59,156.59,0,0,0-23.5-24.71c-7.16-6-14.92-11-23.94-13.49-3.91-1.09-8.15-1.06-12.25-1.4a6.78,6.78,0,0,0-5.78,2.42c-2.07,2.4-4.39,4.81-5.64,7.63-3.72,8.43-7,17.07-10.42,25.63-.46,1.14-.64,2.19.66,2.89,5.17,2.77,5.06,6.7,2.79,12.71,1.52,2.16,3.07,4.44,4.68,6.67a16.82,16.82,0,0,1,3,14.18c-1.5,6.9-2.19,14-3.88,20.84-1.22,5-3.41,9.7-5.38,14.46a3.76,3.76,0,0,1-2.62,2.06c-.7,0-1.51-1.45-2.21-2.3-1.09-1.33-2.13-2.71-3.2-4C8.41,244,5.9,237.77,4.06,231.28A154,154,0,0,1,.39,215.41c-1.5-8.86,1.34-16.48,7.41-23a4.84,4.84,0,0,0,1-2.42c.68-3.62,1.27-7.22,5.73-8.31.59-.14,1.08-1.2,1.37-1.94,2.6-6.57,4.91-13.27,7.8-19.72a69.14,69.14,0,0,1,7-12c2.63-3.66,6.52-5.4,11.21-5.42a40.93,40.93,0,0,1,15.82,2.83,74.86,74.86,0,0,1,20.75,12.49,169.17,169.17,0,0,1,50.65,73.5c2.23,6.33,4.27,12.73,6.46,19.29,0-.91.1-1.75.12-2.59.67-31.37,3.14-62.56,9.39-93.35,2.32-11.41,5.48-22.64,7.86-34a124.27,124.27,0,0,0,3.14-26.41,6.68,6.68,0,0,0-2.49-5.58c-3.41-3.17-6.57-6.64-10.15-9.59a70.83,70.83,0,0,0-10.57-7.36c-5.25-2.93-9.28-7.11-13.1-11.59-3.41-4-6.73-8.08-10.15-12.08a15.09,15.09,0,0,0-10.9-5.75,10.35,10.35,0,0,1-7.46-3.61A5.51,5.51,0,0,0,90,37.52c-3.35-2-3.3-4.85-2-7.85a69.57,69.57,0,0,1,4.79-9.43,11.91,11.91,0,0,1,10.13-6c-.37-1.76-.64-3.27-1-4.76-.69-2.81.39-4.82,2.64-6.45C111-1.64,120.24-.85,126.42,5c3,2.86,5.85,5.86,8.67,8.89a9.76,9.76,0,0,0,8.08,3.28c9.56-.55,19.12-1.14,28.68-1.58a48.14,48.14,0,0,1,8.49.33,6.68,6.68,0,0,1,6,4.74q2.64,8.52,5,17.11a20.76,20.76,0,0,1-.4,11.84c2.67.59,5.17,1.1,7.64,1.7,3.86.94,6.77,3.31,9.26,6.28.72.86,1.41,1.74,2.14,2.59a6.91,6.91,0,0,0,6.37,2.48,15.86,15.86,0,0,1,14.19,5.93c2.83,3.33,6.15,6.24,9.06,9.5a9.52,9.52,0,0,1,1.69,4.18,24.53,24.53,0,0,0,12.23,4.56c6.32.77,9.59,4.85,9.06,11.22-.26,3.18-.82,6.33-1.15,9.5a7.07,7.07,0,0,0,.16,3,8.57,8.57,0,0,1-2,9.53,71.56,71.56,0,0,1-5.56,5.73c-6.35,5.24-12.91,7-22.8.5A148.93,148.93,0,0,1,218.52,117a99.46,99.46,0,0,0-44.27-20.82c-3.29-.65-6.51-1.67-9.8-2.38a4.2,4.2,0,0,0-4.82,3.46l0,.19c-.54,15.83-4.69,31-8.41,46.24a413.1,413.1,0,0,0-10.36,71.11c-.88,13.59-1.11,27.23-1.6,40.86A242.74,242.74,0,0,0,146,320.58c5.25,22.15,11.39,44.08,17.15,66.11a1.5,1.5,0,0,0,.83.9c.59-3.64,1.1-7.3,1.79-10.92,2.59-13.75,2.31-27.65,2.22-41.54-.08-11-.39-21.92-.06-32.87.24-7.92,1.4-15.8,2.06-23.7.41-4.81.6-9.64,1-14.45.52-6.45,1-12.9,1.76-19.32.42-3.73-.68-6.57-3.87-8.48-5.36-3.2-6.27-5.13-4.58-11.17a37.66,37.66,0,0,1,3.27-7.84c2.75-5,6.92-6.89,12.57-6l2.93.45c.39-.74.79-1.39,1.1-2.08A112.4,112.4,0,0,1,199,186.11c7.18-9,14.73-17.57,24.09-24.43A74.69,74.69,0,0,1,240,152.79a3.7,3.7,0,0,1,1.74-.45,4.06,4.06,0,0,1,2.43.9c.37.45.15,1.63-.16,2.33a12,12,0,0,1-1.69,2.28c-6.18,8.18-11.43,16.88-14,26.91-3,11.58-6.69,22.84-12.77,33.21a11.78,11.78,0,0,0-.62,1.56l5.28,1.32c3.76.94,7.54,1.79,11.26,2.87,2.95.85,5.38,2.42,5.87,5.91l2.89.52c3.24.54,5.91,2,7.44,5,2.3,4.53,6,6.73,10.89,7.83,3.48.79,6.74,2.55,10.06,4a9.68,9.68,0,0,1,5.56,10.91l8.77,1.73a30,30,0,0,1,3.54.74c4.55,1.42,6.38,4.95,4.38,9.33a95,95,0,0,1-6.33,11.25,9.85,9.85,0,0,1-6.5,4.37c-7.44,1.5-14.88,2.94-22.33,4.38a13.43,13.43,0,0,1-9.21-1.42c-4.56-2.41-9.58-1.39-14.46-.86-1.32.14-2.64.22-4.35.36-1.59,4.91-4.37,9.14-11.1,9.1-1,6.24-2.27,12.51-2.81,18.84-2.57,30.52-5.23,61-7.27,91.59-2.54,37.53-5.8,74.73-11.18,111.83-4,27.74-6.68,55.67-9.9,83.52a71.83,71.83,0,0,0-.39,7.49c-.15,17-.5,34-.28,51,.11,9.07-.69,18.05-1.32,27.06-.54,7.64-1.43,15.26-2,22.91-.26,3.82,0,7.67,0,11.51Zm15.7-453.3-.68.26a16.4,16.4,0,0,0-.15,1.72A130.15,130.15,0,0,1,195,297.27c-1.3,7.91-1.83,16-4.06,23.68-5.09,17.45-11,34.68-16.65,52-.8,2.44-2.26,4.65-3.24,7-1.27,3.09-2.47,6.22-3.5,9.4a30.08,30.08,0,0,0-1,5.58,13.19,13.19,0,0,0,0,4.52,512.45,512.45,0,0,1,15.8,106.8c.56,13.88,1,27.76,1.77,41.63.17,3.25,1.23,6.44,1.88,9.66l.78-.1c.12-.84.24-1.67.35-2.5,1.82-13.68,3.48-27.39,5.49-41,3.16-21.43,5.87-42.9,7.46-64.5,1.42-19.36,2.58-38.74,4-58.09,1.2-16.52,2.63-33,3.88-49.54,1.14-15.06,2.41-30.1,5.43-44.92a7.68,7.68,0,0,0-1.91-7.36c-4.57-4.54-7.24-10.26-10.53-15.6C199.86,272.37,198.73,271,197.73,269.53Zm-7,444.72.61.32c1-1.39,1.89-2.8,2.88-4.17,7.13-9.83,13.42-20.35,23-28.13a27.83,27.83,0,0,0,8.23-11.11A347.84,347.84,0,0,0,239.82,628c3.46-12.67,3-24.94-2.22-37.18a71.94,71.94,0,0,1-5.44-18.54,117.22,117.22,0,0,1,1.75-39.88c3-13.77,5.52-27.57,5.57-41.73q.09-22.92.26-45.81c.07-8.62.32-17.25.43-25.87.07-4.89,0-9.77,0-14.32-.49,1.25-1.27,2.94-1.85,4.7A300.12,300.12,0,0,0,225.14,471c-1.39,13.12-1.9,26.33-3.26,39.45C220,529,218,547.67,215.35,566.19,211.53,593,209.52,620,207.46,647c-1.06,14-2.28,27.89-7,41.2-2.83,8-6,15.81-8.94,23.72-.3.76-.55,1.52-.79,2.29ZM73.73,305.3h-.48c0,.4-.15.8-.16,1.19-.57,17.24-1.1,34.47-.2,51.73.79,15.09,4.3,29.39,11.77,42.49,6.57,11.52,13.57,22.83,20.82,33.94,7,10.68,14.5,21,20.6,32.25,4.06,7.5,8.4,14.87,12.77,22.2q20.34,34.09,40.79,68.12c.31.4.65.79,1,1.16.19-3.56.11-6.58-1.34-9.48-1.19-2.39-2.13-4.9-3.13-7.38-4.31-10.62-8.64-21.24-12.89-31.89-1.83-4.55-3.78-9.09-5.17-13.78-3.34-11.27-7.18-22.32-12.8-32.69a217.28,217.28,0,0,1-16.71-40.31q-2.11-6.93-4.69-13.7c-4.49-11.69-11.3-21.65-21.77-28.89a50.89,50.89,0,0,1-6.59-5.4c-6.59-6.47-10-14.74-13-23.27-3.61-10.42-4.64-21.37-6.35-32.17C75.43,314.73,74.56,310,73.73,305.3ZM161,88.45c1-1.4,1.76-2.55,2.6-3.63,4-5.09,8.1-10,11.86-15.28,3.06-4.26,5.59-8.9,8.51-13.27,4.36-6.49,5.76-13.32,3.17-20.87-1.42-4.16-2.59-8.4-3.8-12.62a4.18,4.18,0,0,0-3.83-3.33,48.19,48.19,0,0,0-7.21-.24c-9.65.48-19.28,1.06-28.92,1.61a13.05,13.05,0,0,1-10.86-4.43c-2.68-2.91-5.45-5.76-8.28-8.53-4.87-4.77-12.37-5.67-17.28-2.07-.74.54-1.69,1.7-1.55,2.37.46,2.24.78,5,2.22,6.44,3.32,3.4,5.52,7.47,8,11.36a121,121,0,0,1,7.77,14.57c6.53,14.18,14,27.71,25.63,38.47a50.24,50.24,0,0,0,7.11,5c1.79,1.15,3.95,1.83,4.87,4.45Zm38.2,149.38c-.15,5,1.44,9.46,3.57,13.87,3.7,7.67,7.25,15.42,10.8,23.16a2.85,2.85,0,0,0,2.21,1.75c3.22.82,6.74,1.36,9.44,3.1s4.66,2,7.2.46a11.38,11.38,0,0,1,2.14-.89,12.4,12.4,0,0,0,6.36-5,51.72,51.72,0,0,1,5.56-6.43c3-3,6.15-5.78,9.14-8.76,2.17-2.17,2.08-3.3-.21-5.37-3.21-2.9-6.81-4.95-11.3-5.07-5.21-.13-9.06-2.63-10.65-7.54-1.87-5.82-5.84-7.68-11.44-7.36h-2.32A26.77,26.77,0,0,1,208,230.83c-4.58-2.3-8.2-.35-8.71,4.68C199.21,236.29,199.21,237.07,199.18,237.83ZM167.73,90.46l-.16.59c2.9.72,5.79,1.51,8.71,2.16,14,3.16,27.2,8.24,38.74,17.07,5.69,4.34,11.43,8.62,17.27,12.75a29.26,29.26,0,0,0,6.65,3.36,11.4,11.4,0,0,0,10.6-1.44,30.81,30.81,0,0,0,8-7.65,5.51,5.51,0,0,0,1-4.84,20.25,20.25,0,0,1-.43-5.32c.18-2.83.76-5.64,1-8.47.52-5.44-1.36-7.42-6.65-8.43-3.75-.71-7.34-2.28-11-3.38-1.29-.38-2.76-.93-4-.63a16.52,16.52,0,0,0-5.83,2.51c-5.22,3.8-10.91,6.08-17.37,5.42a140.56,140.56,0,0,1-17.07-2.67C187.36,89.24,177.61,88.42,167.73,90.46Zm2.21,282.22.51.12c.3-.69.65-1.36.88-2.07,2.89-8.57,5.89-17.11,8.61-25.74,4.18-13.21,9.07-26.23,10.48-40.19,1.06-10.46,3-20.78,3.13-31.37.06-5.07-1.11-7.88-6.14-9.34s-8.15-5.26-9.83-10.26c-.46-1.34-1.05-2.63-1.57-3.94l-.54.06c-.21,2-.5,4-.63,6.07-.55,8.16-1,16.34-1.59,24.5-.34,4.47-1.35,8.9-1.46,13.36-.3,12.84-.26,25.69-.43,38.53q-.24,16.8-.66,33.6C170.64,368.26,170.2,370.47,169.94,372.68Zm20-319.58c-3.66,5.84-7.1,11.71-10.94,17.31s-8.06,10.88-12.23,16.47c3.55-.39,6.78-.94,10-1,8.5-.28,16.77,1.16,25,3.21a72.69,72.69,0,0,0,14.84,1.63c8.41.29,13.69-6.09,20.12-9.6A114.42,114.42,0,0,1,229,72.39c-3.55-4.78-8.06-6.82-13.9-6a6.58,6.58,0,0,1-5.7-1.83,45.89,45.89,0,0,1-3.89-4.12,15,15,0,0,0-8.85-5.87Zm20.32,230c1-3,1-5.26-.1-7.6-2.82-5.91-5.45-11.91-8.19-17.85-1.55-3.37-3.45-6.6-4.67-10.08a25,25,0,0,1-.28-17.25c1.22-3.38.8-5.86-1.59-8.45-4.83-5.22-11.19-6.56-17.82-7a6.73,6.73,0,0,0-4.76,1.57,18.89,18.89,0,0,0-5.62,13.48,3.47,3.47,0,0,0,1.65,2.57c4.29,1.93,6.55,5.41,8.07,9.61,1.38,3.81,2.82,7.6,4.25,11.39a12,12,0,0,0,6.73,7.13c1.27.54,2.51,1.14,3.8,1.63A23.28,23.28,0,0,1,205,274c1.45,3,3.3,5.77,5.26,9.11Zm-14.32-66c5.12-3.44,10.49-5.21,16,0,.4-.59.7-1,.94-1.42,4.25-7.73,8-15.68,10-24.32a89.41,89.41,0,0,1,12.31-29.42c.83-1.24,1.61-2.52,2.71-4.24-1,.38-1.47.54-1.93.73-5.73,2.36-10.63,6-15.42,9.84-7.88,6.32-14,14.26-20.27,22a95.54,95.54,0,0,0-12.55,20.18c-.31.67-.55,1.38-.73,1.87Zm38.69,66.08.08.39a54.14,54.14,0,0,1,6.86.07,20.75,20.75,0,0,1,6.67,1.7,9.89,9.89,0,0,0,6.44,1.09c7.53-1.47,15.1-2.73,22.55-4.51,1.95-.47,3.88-2.24,5.17-3.92A53.69,53.69,0,0,0,287,270c2.06-4,1.2-5.67-3.16-6.57s-8.57-1.95-12.91-2.64c-5.18-.82-10.5-1.15-14.7,2.79a178.53,178.53,0,0,0-12.56,13c-2.14,2.48-4.23,4.73-7.35,5.86a15.84,15.84,0,0,0-1.77.84ZM134.49,68.93l.48-.62c-.32-.5-.64-1-1-1.5-5.58-8.52-10.84-17.21-14.59-26.75-2.83-7.21-7.23-13.52-11.86-19.65-2.24-3-5.55-3.45-8.63-1.34a8.18,8.18,0,0,0-2.65,2.42c-1.86,3.28-3.52,6.68-5.18,10.08-.27.56-.41,1.68-.09,2,2.26,2,3.74,5.13,7.29,5.34,6.48.39,11.25,3.63,15.28,8.57C118.16,53.15,123,58.64,128,64,129.87,65.92,132.33,67.29,134.49,68.93Zm-118,126c-1.55,4.87-3,9.09-4.21,13.37a15.71,15.71,0,0,0,1.64,12.2,18.33,18.33,0,0,1,1.74,7.4,42.55,42.55,0,0,1-.62,7.72,25.47,25.47,0,0,0,1.69,11.93,17.88,17.88,0,0,0,1.51,2.52h.81c1.17-3.57,2.68-7.07,3.44-10.73,1.62-7.75,3-15.57,4.16-23.4a10.76,10.76,0,0,0-.8-6.48c-2.68-4.84-6-9.37-9.36-14.51Zm219.92,38.6c-.3,1.37-1,2.66-.78,3.79.84,4.81,3.87,7.4,8.85,7.9,7.84.79,13.78,4.24,16.81,11.65,2,0,4,.1,6,0a22.56,22.56,0,0,0,3.48-.81,24.82,24.82,0,0,0-1.14-3.8,3.34,3.34,0,0,0-1.7-1.51c-3.62-1.54-7.18-3.39-11-4.38-5-1.32-9.17-3.56-11.59-8.24C243.49,234.54,240.55,233.43,236.41,233.53ZM201.8,227c3.61-1.19,6.87.22,10.21,1.74a18.75,18.75,0,0,0,6.26,1.41c5,.36,10.12-.23,14.6,2.81,1.33-3.7,1.06-4.57-2.34-5.68a71.13,71.13,0,0,0-10.46-2.72,19.9,19.9,0,0,1-11.22-5.27,6.78,6.78,0,0,0-9.61.07c-.14.14-.26.28-.39.43C199.82,222.1,200.73,224.31,201.8,227ZM13,194.23l-.75-.62A17.74,17.74,0,0,0,9.17,196c-4.41,5.38-6.5,11.5-5.46,18.5a129,129,0,0,0,6.72,24.63,11.11,11.11,0,0,0,.81,1.32c.28-3.57.4-6.73.81-9.84.5-3.74.15-7.2-2.13-10.34A9.08,9.08,0,0,1,9,217.91c-1.44-4.48-.75-8.85.67-13.19C10.79,201.23,11.91,197.72,13,194.23Zm201.69,85.84c-1,3.75-.69,7,.83,9.6,1.68,2.9,5.11,3.79,6.6,1.49a25.94,25.94,0,0,0,2.7-6.35c.17-.52-.5-1.59-1.07-2C221.14,280.83,218,280.44,214.73,280.07ZM185.35,565.15l-.89.1c.13,1.15.27,2.3.4,3.45h.49Z"/></g></g></svg>