<svg xmlns="http://www.w3.org/2000/svg" viewBox="0 0 343 429"><path d="M191.6 0.4c-7.7 1.1-13.6 5.7-17.2 9.4 -2.3 2.4-4.6 5.5-6.9 9.3 -1.8 3.1-3.5 6.5-5.2 10.8 -3.2 7.9-5.7 16.8-7.9 27.3 -1.8 8.8-3.2 18.3-4.5 29.8 -2 18.7-2.9 38.1-3.5 54.7l0 1.2c-0.1 2.7-0.2 5.4-0.3 8.1 -0.1 2.5-0.3 5.1-0.5 7.6 -0.2 2.3-0.3 4.5-0.4 6.8 -0.9 16.4-0.9 33.3 0 51.6 -8.2-32.2-16.1-58.5-24.8-82.6 -6.7-18.6-13-33.4-20-46.8 -3.5-6.8-7-12.5-10.7-17.7 -4-5.7-8-10.3-11.9-13.9 -4.3-3.9-9-6.8-13.9-8.5 -2.7-0.9-5.5-1.4-8.5-1.4 -2.1 0-4.2 0.2-6.2 0.7 -2.2 0.5-4.6 1.4-7.3 2.9 -2.8 1.5-5.4 3.4-7.6 5.7 -2.4 2.5-4.4 5.6-6.2 9.2 -1.7 3.5-3 7.4-4 11.9 -1.1 4.7-1.6 9.6-2 14.1 -0.4 4.3-0.5 9-0.5 14.6 0.1 9.4 0.9 19.6 2.5 31.9 2.4 18.3 6.2 37.6 11.8 60.8 1.3 5.3 2.8 11.1 4.5 17.6 3.5 13.3 7.9 27.5 13.4 43.4 2.9 8.3 6.1 17.2 10.2 27.9 -0.7-1.1-1.5-2.2-2.3-3.3 -6-8.5-11.5-15.6-17-21.7 -2.7-3-5.3-5.6-7.9-7.9 -2.9-2.6-5.6-4.5-8.3-6.1 -1.5-0.8-3-1.5-4.4-2 -1.5-0.6-3.1-0.8-4.6-1 -0.5 0-0.9-0.1-1.4-0.1 -2.2 0-4.5 0.6-6.7 1.8 -2.3 1.2-4.4 3.5-6.1 6.6 -1 1.7-1.6 3.6-2.2 5.3 -0.7 1.9-1.2 4.2-1.6 6.8 -1.7 11.9 0.7 24 3 33.2 3.3 13.3 8.3 25.9 12.3 35.4 4.4 10.5 9.3 20.8 15.1 32.9 1.4 3 2.9 5.9 4.3 8.9 4 8.3 8.1 16.8 12.4 25.1 5 9.4 10.2 18.7 15.6 27.8 20.6-0.8 41.3-0.4 62-0.1 17.7 0.3 35.5 0.7 53.2 0.4 17.4-0.3 34.7-1 52-1.4 4.7-0.1 9.4-0.2 14.2-0.3 0.9-1.2 1.8-2.5 2.6-3.6l0.1-0.2 0 0 1.6-2.3c1.6-2.2 3.2-4.4 4.8-6.6 2.4-3.4 4.8-6.9 7-10.3 4.3-6.6 8.7-13.5 13.1-20.6 8.4-13.7 16.4-28 23.8-42.5 7.3-14.2 14.2-29.1 20.5-44.3 3-7.2 6-14.8 9.2-23.3l0.2-0.6c1.3-3.6 2.7-7.3 3.9-11 1.5-4.9 2.9-10.3 4.4-17.5 1.6-7.3 2.9-14.9 4-22.5 1.3-8.8 2.1-17 2.4-25 0.4-8.4 0.2-15.3-0.7-21.7 -0.7-5.3-2-12.2-5.6-18.2 -0.8-1.3-1.8-2.5-2.7-3.5 -1-1.2-2.2-2.1-3.4-2.9 -2.1-1.5-4.8-2.4-8.3-2.8 -0.6-0.1-1.2-0.1-1.9-0.1 -2.1 0-4.3 0.3-6.7 1.1 -3.1 0.9-6.5 2.4-10.2 4.7 -4.3 2.6-8.3 5.8-11.9 8.8 -4.1 3.5-8.3 7.5-12.9 12.3 -8.3 8.7-16.3 18.9-24.5 31 -7.5 11-14.2 22.9-20.1 35.2 -1 2.2-2.1 4.5-3.1 6.7 3-41.1 4.5-74.8 4.7-105.9 0.1-20.1-0.4-37.7-1.5-53.6 -1.3-18.2-3.2-32.8-6.2-45.9 -1.5-6.5-3.2-12.1-5.2-17.2 -2.3-5.8-4.6-10.1-7.3-13.7 -3.3-4.3-6.7-7.3-10.4-9.1 -2.2-1.1-4.2-1.7-6.2-2 -1.4-0.2-2.6-0.4-3.9-0.4C195.7 0 195.6 0 195.6 0 194.3 0 192.9 0.2 191.6 0.4L191.6 0.4 191.6 0.4z" fill="#587833"/><path d="M44.6 82.2c-0.8 0.1-1.3 1-1.2 1.8 0.8 3.7 1.5 7.4 2.3 11.1 0.2 0.8 1 1.4 1.9 1.3 0.8-0.2 1.4-1 1.2-1.8 -0.8-3.7-1.5-7.4-2.4-11 -0.2-0.7-0.8-1.3-1.6-1.3C44.7 82.2 44.6 82.2 44.6 82.2L44.6 82.2 44.6 82.2zM182 405.5c0 0.1 0 0.1 0 0.2C182 405.7 182 405.6 182 405.5L182 405.5 182 405.5zM179.1 401.2c-0.3 0.3-0.5 0.7-0.5 1.1 0.2 3.4 0.5 6.7 1.1 10.1 0.2 0.9 1.1 1.4 1.9 1.3 0.9-0.2 1.4-1 1.2-1.9 -0.4-2.1-0.7-4.3-0.8-6.5 -0.1-0.9-0.1-1.8-0.2-2.7 0-0.5-0.1-0.8-0.4-1.2 -0.3-0.3-0.7-0.5-1.1-0.6 0 0-0.1 0-0.1 0C179.8 400.8 179.4 401 179.1 401.2L179.1 401.2 179.1 401.2zM235.6 393.4c-0.4 0.2-0.6 0.5-0.7 0.8 -1.1 2.6-2.1 5.3-3 8.1 -0.3 0.8 0.2 1.6 1 1.9 0.8 0.3 1.6-0.1 1.9-0.9 0.9-2.7 1.9-5.4 3-8.1 0.3-0.7-0.2-1.7-1-1.9 -0.2-0.1-0.4-0.1-0.5-0.1C236 393.3 235.8 393.3 235.6 393.4L235.6 393.4 235.6 393.4zM212.9 395.3c0 0.1 0 0.2-0.1 0.4C212.9 395.6 212.9 395.5 212.9 395.3L212.9 395.3 212.9 395.3zM211.2 391.2c-0.3 0.2-0.7 0.5-0.8 0.8 -0.8 3.6-1.3 7.3-1.5 11 0 0.8 0.6 1.6 1.5 1.7 0.8 0.1 1.6-0.6 1.6-1.4 0.1-2.7 0.4-5.4 0.9-8 0.1-0.7 0.3-1.4 0.5-2.2 0.1-0.4 0.1-0.8-0.1-1.2 -0.2-0.4-0.5-0.6-0.9-0.8 -0.2-0.1-0.4-0.1-0.5-0.1C211.6 391.1 211.4 391.1 211.2 391.2L211.2 391.2 211.2 391.2zM147.4 397c-0.9 0.2-1.4 1-1.2 1.9 0.6 3.8 1.9 7.6 3.8 11 0.4 0.8 1.4 1.2 2.2 0.8 0.8-0.4 1.1-1.4 0.7-2.2 -0.8-1.4-1.5-2.9-2.1-4.5 -0.7-1.9-1.2-3.8-1.5-5.8 -0.1-0.8-0.9-1.3-1.7-1.3C147.6 396.9 147.5 396.9 147.4 397L147.4 397 147.4 397zM191.6 381.8c0.1 3.9-0.2 7.8-0.9 11.6 -0.1 0.3-0.1 0.6-0.2 0.9 -0.1 0.4-0.1 0.8 0.1 1.2 0.2 0.4 0.5 0.6 0.9 0.8 0.4 0.1 0.8 0.1 1.2 0 0.3-0.2 0.7-0.5 0.7-0.8 0.9-4.4 1.3-8.8 1.2-13.3 0-0.4-0.1-0.8-0.4-1.1 -0.3-0.3-0.7-0.5-1.1-0.5 0 0-0.1 0-0.1 0C192.3 380.5 191.6 381.1 191.6 381.8L191.6 381.8 191.6 381.8zM168.8 375c-0.3 3.3-0.3 6.7-0.1 10.1 0 0.4 0.1 0.8 0.4 1.1 0.3 0.3 0.7 0.5 1.1 0.6 0.4 0 0.8-0.1 1.1-0.4 0.3-0.2 0.5-0.7 0.5-1 -0.3-3.4-0.3-6.7 0-10.1 0.1-0.8-0.6-1.6-1.5-1.7 0 0-0.1 0-0.1 0C169.5 373.6 168.9 374.2 168.8 375L168.8 375 168.8 375zM203.5 350.1c0-0.1 0-0.1 0-0.2C203.5 350 203.5 350 203.5 350.1L203.5 350.1 203.5 350.1zM202.2 344.2c-0.3 0.2-0.7 0.5-0.7 0.8 -0.9 4.2-1.6 8.5-2.2 12.8 -0.1 0.8 0.7 1.6 1.4 1.6 0.4 0 0.8-0.1 1.1-0.3 0.3-0.3 0.4-0.6 0.5-1 0.4-2.8 0.8-5.6 1.3-8.4 0 0.1 0 0.2 0 0.2 0.2-1.3 0.5-2.6 0.8-3.8 0.1-0.4 0.1-0.8-0.1-1.2 -0.2-0.4-0.5-0.6-0.9-0.8 -0.2-0.1-0.4-0.1-0.5-0.1C202.6 344.1 202.3 344.1 202.2 344.2L202.2 344.2 202.2 344.2zM178.9 350.4c0 0 0 0 0 0 0 0 0 0 0-0.1C178.9 350.4 178.9 350.4 178.9 350.4L178.9 350.4 178.9 350.4zM175.9 336.2c-0.5 5.3-0.5 10.6 0.1 15.9 0 0.4 0.4 0.8 0.7 1 0.4 0.2 0.8 0.3 1.2 0.3 0.4-0.1 0.7-0.3 1-0.6 0.3-0.4 0.3-0.7 0.2-1.2 0-0.4-0.1-0.7-0.1-1.1 0 0.1 0 0.2 0 0.3 0-0.1 0-0.2 0-0.3 0 0 0-0.1 0-0.1 0 0 0 0 0 0.1 -0.4-4.6-0.3-9.3 0.1-13.9 0.1-0.8-0.7-1.6-1.5-1.7 0 0-0.1 0-0.1 0C176.6 334.7 176 335.4 175.9 336.2L175.9 336.2 175.9 336.2zM200.1 312.4c-0.3 5.4-0.4 10.8-0.4 16.1 0 0.9 0.6 1.6 1.5 1.7 0.8 0.1 1.6-0.6 1.6-1.4 0-5.4 0-10.8 0.4-16.2 0.1-0.8-0.7-1.6-1.5-1.7 0 0-0.1 0-0.1 0C200.8 311 200.2 311.6 200.1 312.4L200.1 312.4 200.1 312.4zM223.9 364.7c-0.8 3.1-1.6 6.2-2.4 9.3 -0.1 0.4-0.1 0.8 0.1 1.2 0.2 0.4 0.5 0.7 0.9 0.8 0.8 0.3 1.8-0.1 2-0.9 0.7-3.1 1.5-6.2 2.4-9.3 0.2-0.8-0.2-1.7-1-2 -0.2-0.1-0.4-0.1-0.5-0.1C224.7 363.7 224.1 364.1 223.9 364.7L223.9 364.7 223.9 364.7zM251.5 377.5c0 0.1-0.1 0.1-0.1 0.2C251.4 377.6 251.5 377.6 251.5 377.5L251.5 377.5 251.5 377.5zM255 370.7c-0.4 0.2-0.6 0.5-0.8 0.9 -0.9 2-1.8 4-2.8 5.9 -0.7 1.3-1.3 2.7-2 4 -0.2 0.4-0.3 0.8-0.2 1.2 0.1 0.4 0.3 0.8 0.7 1 0.4 0.3 0.8 0.4 1.2 0.3 0.4-0.1 0.8-0.3 1-0.6 1.8-3.5 3.5-7.1 5.1-10.7 0.2-0.4 0.1-0.9-0.1-1.2 -0.2-0.4-0.5-0.7-0.9-0.8 -0.2-0.1-0.4-0.1-0.6-0.1C255.5 370.6 255.2 370.6 255 370.7L255 370.7zM310.2 285c-0.4 0.1-0.8 0.3-1 0.6 -2 4-3.9 8-5.3 12.2 -0.3 0.8 0.2 1.7 1 2 0.8 0.3 1.7-0.1 2-0.9 1.2-3.4 2.6-6.8 4.2-10 0 0 0 0.1-0.1 0.1 0.3-0.5 0.5-1 0.8-1.6 0.2-0.4 0.3-0.7 0.2-1.2 -0.1-0.4-0.3-0.8-0.7-1 -0.3-0.2-0.6-0.3-0.9-0.3C310.4 285 310.3 285 310.2 285L310.2 285 310.2 285zM276.2 329.4c-1.3 3.7-2.6 7.5-4 11.2 -0.3 0.8 0.2 1.7 1 2 0.8 0.3 1.7-0.1 2-0.9 1.3-3.7 2.7-7.5 4-11.2 0.3-0.8-0.2-1.7-1-2 -0.2-0.1-0.4-0.1-0.5-0.1C277 328.4 276.5 328.8 276.2 329.4L276.2 329.4 276.2 329.4zM248.6 345.6l0 0c0 0 0 0 0 0C248.6 345.6 248.6 345.6 248.6 345.6L248.6 345.6 248.6 345.6zM249.2 331c-1.9 4.7-3.1 9.7-4 14.7 -0.1 0.4 0.2 0.9 0.4 1.2 0.3 0.3 0.7 0.6 1.2 0.6 0.4 0 0.9-0.1 1.2-0.4 0.4-0.3 0.5-0.7 0.6-1.1 0-0.1 0-0.2 0.1-0.4 0 0.1 0 0.1 0 0.2 0-0.1 0-0.1 0-0.2 0-0.1 0-0.2 0-0.3 0 0.1 0 0.2 0 0.2 0.9-4.6 2-9.1 3.8-13.4 0.3-0.8-0.3-1.9-1.1-2.2 -0.2-0.1-0.4-0.1-0.6-0.1C250.1 329.9 249.5 330.3 249.2 331L249.2 331 249.2 331zM240.9 294.8c0 0.1 0 0.1 0 0.1C240.8 294.9 240.8 294.9 240.9 294.8L240.9 294.8 240.9 294.8zM239.2 287.7c-0.9 3.5-1.6 7-2.1 10.6 -0.1 0.8 0.7 1.6 1.5 1.7 0.4 0 0.8-0.1 1.1-0.4 0.3-0.3 0.4-0.6 0.5-1.1 0.2-1.2 0.3-2.3 0.5-3.4 0.4-2.1 0.9-4.3 1.4-6.4 0.2-0.8-0.2-1.7-1-2 -0.2-0.1-0.4-0.1-0.5-0.1C240 286.7 239.4 287.1 239.2 287.7L239.2 287.7 239.2 287.7zM231 315.5c-1.4 4.2-2.6 8.5-3.9 12.8 -0.2 0.8 0.2 1.6 1 1.9 0.8 0.3 1.7-0.1 1.9-0.9 1.3-4.3 2.5-8.6 3.9-12.8 0.2-0.8-0.2-1.6-1-1.9 -0.2-0.1-0.3-0.1-0.5-0.1C231.7 314.5 231.2 314.9 231 315.5L231 315.5 231 315.5zM259.5 295.5c-1.1 3.5-2.1 7.1-3.1 10.7 -0.1 0.4-0.1 0.8 0.1 1.2 0.2 0.4 0.5 0.7 0.9 0.8 0.8 0.3 1.8-0.1 2-0.9 0.9-3.6 2-7.1 3.1-10.7 0.3-0.8-0.2-1.7-1-2 -0.2-0.1-0.4-0.1-0.5-0.1C260.3 294.5 259.7 294.9 259.5 295.5L259.5 295.5 259.5 295.5zM284.9 294.4c-2.4 4.3-4.3 8.8-6.2 13.3 -0.3 0.8 0.2 1.8 1 2.1 0.4 0.1 0.9 0.1 1.2-0.1 0.4-0.2 0.6-0.5 0.8-0.9 1.3-3 2.6-6 4-9 0.6-1.2 1.2-2.4 1.9-3.6 0.2-0.4 0.3-0.8 0.2-1.2 -0.1-0.4-0.3-0.8-0.7-1 -0.3-0.2-0.6-0.3-1-0.3C285.7 293.8 285.2 294 284.9 294.4L284.9 294.4 284.9 294.4zM279.2 249.3c-2.3 3.4-4.1 7.2-5.5 11.1 -0.3 0.8 0.2 1.8 1 2.1 0.8 0.3 1.8-0.1 2-0.9 0.6-1.8 1.3-3.6 2.1-5.3 0 0 0 0.1 0 0.1 0.9-1.8 1.9-3.5 3-5.2 0.5-0.7 0.3-1.7-0.5-2.3 -0.3-0.2-0.6-0.3-0.9-0.3C280 248.6 279.5 248.9 279.2 249.3L279.2 249.3 279.2 249.3zM322.3 201.8c-0.5 1.6-1 3.1-1.3 4.7 -0.1 0.4-0.1 0.8 0.1 1.2 0.2 0.4 0.5 0.6 0.9 0.8 0.4 0.1 0.8 0.1 1.2 0 0.3-0.2 0.7-0.5 0.7-0.8 0.4-1.6 0.8-3.2 1.3-4.7 0.3-0.8-0.2-1.7-1-2 -0.2-0.1-0.4-0.1-0.5-0.1C323 200.8 322.4 201.2 322.3 201.8L322.3 201.8zM305.2 258.6c-0.4 0.1-0.8 0.3-1 0.7 -1.6 3.2-3.1 6.4-4.3 9.8 -0.3 0.8 0.2 1.8 1 2.1 0.9 0.3 1.8-0.1 2.1-0.9 1.1-2.8 2.2-5.6 3.5-8.2 0.1-0.3 0.3-0.5 0.4-0.8 0.2-0.4 0.3-0.8 0.2-1.2 -0.1-0.4-0.3-0.8-0.7-1 -0.3-0.2-0.6-0.3-1-0.3C305.4 258.5 305.3 258.5 305.2 258.6L305.2 258.6 305.2 258.6zM318.1 225.5c-2.1 3.6-4 7.4-6 11.1 -0.2 0.4-0.3 0.7-0.2 1.1 0.1 0.4 0.3 0.7 0.6 1 0.3 0.2 0.8 0.3 1.2 0.3 0.3-0.1 0.8-0.3 0.9-0.6 1.9-3.7 3.9-7.4 6-11.1 0.4-0.7 0.3-1.6-0.4-2.1 -0.3-0.2-0.6-0.3-0.9-0.3C318.8 224.9 318.3 225.1 318.1 225.5L318.1 225.5 318.1 225.5zM298.7 222.9c-0.1 0.1-0.1 0.2-0.2 0.3C298.6 223.1 298.6 223 298.7 222.9L298.7 222.9 298.7 222.9zM299.5 214.7c-3.1 4.5-5.4 9.5-7.2 14.7 -0.3 0.8 0.2 1.9 1.1 2.2 0.9 0.3 1.8-0.1 2.1-1 1-2.6 2-5.2 3.2-7.7 1.1-2.1 2.3-4.2 3.6-6.2 0.5-0.7 0.3-1.8-0.5-2.4 -0.3-0.2-0.6-0.3-1-0.3C300.3 214 299.8 214.2 299.5 214.7L299.5 214.7 299.5 214.7zM322.8 174c-1.1 4.1-2.4 8.1-3.8 12.1 -0.3 0.8 0.2 1.8 1 2 0.8 0.3 1.7-0.1 2-0.9 1.4-4 2.7-8 3.8-12.1 0.2-0.8-0.2-1.7-1-2 -0.2-0.1-0.4-0.1-0.5-0.1C323.6 173 323 173.4 322.8 174L322.8 174 322.8 174zM298.3 183.4c-1.6 4.2-2.7 8.6-3.3 13 -0.1 0.9 0.7 1.7 1.5 1.7 0.4 0 0.8-0.1 1.2-0.4 0.3-0.3 0.5-0.6 0.5-1.1 0.1-0.9 0.3-1.8 0.4-2.7 0.6-3.3 1.5-6.4 2.7-9.5 0.3-0.8-0.2-1.8-1-2.1 -0.2-0.1-0.4-0.1-0.6-0.1C299.1 182.4 298.5 182.8 298.3 183.4L298.3 183.4 298.3 183.4zM270.5 217c-1.3 4.4-2.3 8.8-3 13.3 -0.1 0.4 0.2 0.9 0.4 1.2 0.3 0.3 0.7 0.5 1.1 0.6 0.4 0 0.8-0.1 1.2-0.4 0.3-0.3 0.5-0.6 0.5-1.1 0.1-1 0.3-1.9 0.5-2.9 0.6-3.2 1.4-6.5 2.3-9.6 0.2-0.8-0.2-1.7-1-2 -0.2-0.1-0.4-0.1-0.5-0.1C271.3 216 270.7 216.4 270.5 217L270.5 217 270.5 217zM244.9 255.3c-0.3 0.2-0.7 0.5-0.7 0.9 -0.9 3.8-1.5 7.7-1.9 11.6 -0.1 0.8 0.7 1.6 1.5 1.7 0.9 0.1 1.5-0.6 1.6-1.4 0.3-2.6 0.6-5.1 1.1-7.7 0 0 0 0.1 0 0.1 0.2-1.1 0.4-2.1 0.7-3.2 0.1-0.4 0.1-0.8-0.1-1.2 -0.2-0.4-0.5-0.6-0.9-0.8 -0.2-0.1-0.4-0.1-0.5-0.1C245.3 255.1 245.1 255.2 244.9 255.3L244.9 255.3 244.9 255.3zM215.6 291.6c-0.3 0.3-0.4 0.6-0.5 1.1 -0.5 2.9-1 5.7-1.4 8.6 -0.1 0.4 0.1 0.9 0.4 1.2 0.3 0.3 0.7 0.5 1.1 0.6 0.4 0 0.8-0.1 1.1-0.4 0.3-0.3 0.5-0.6 0.5-1.1 0.4-2.9 0.9-5.8 1.4-8.6 0.1-0.4-0.2-0.9-0.4-1.2 -0.3-0.3-0.7-0.5-1.1-0.6 0 0-0.1 0-0.1 0C216.2 291.2 215.8 291.4 215.6 291.6L215.6 291.6 215.6 291.6zM188.1 286.9c-0.5 4.7-0.5 9.4 0 14.1 0.1 0.3 0.2 0.5 0.4 0.7 0.3 0.3 0.7 0.5 1.1 0.6 0.4 0 0.9-0.1 1.2-0.4 0.3-0.2 0.6-0.7 0.5-1.1 -0.4-4.6-0.4-9.1 0.1-13.6 0.1-0.9-0.7-1.7-1.6-1.8 0 0-0.1 0-0.1 0C188.8 285.4 188.2 286 188.1 286.9L188.1 286.9 188.1 286.9zM210.6 259.6c-0.3 0.3-0.5 0.6-0.5 1.1 -0.5 3.7-0.7 7.5-0.6 11.2 0 0.9 0.6 1.7 1.5 1.8 0.8 0.1 1.7-0.6 1.7-1.5 -0.1-3.8 0.1-7.5 0.6-11.2 0.1-0.9-0.7-1.7-1.5-1.7 0 0-0.1 0-0.1 0C211.2 259.2 210.8 259.3 210.6 259.6L210.6 259.6 210.6 259.6zM198.8 57.2c0 0.1 0 0.1 0 0.2C198.8 57.3 198.8 57.2 198.8 57.2L198.8 57.2 198.8 57.2zM195.5 52.8c-0.2 2.4 0 4.8 0.4 7.2 0.1 0.9 1.1 1.5 2 1.3 0.9-0.2 1.4-1 1.3-1.9 -0.1-0.6-0.2-1.3-0.2-1.9 -0.1-1.5-0.1-3 0-4.5 0.1-0.9-0.7-1.7-1.6-1.8 0 0-0.1 0-0.1 0C196.2 51.3 195.6 51.9 195.5 52.8L195.5 52.8 195.5 52.8zM208.7 38.9c-0.3 0.3-0.6 0.7-0.5 1.1 0.3 3.7 0.5 7.3 0.6 11 0 0.5 0.1 0.9 0.4 1.2 0.3 0.3 0.7 0.6 1.2 0.6 0.9 0.1 1.8-0.6 1.8-1.5 -0.1-3.7-0.3-7.3-0.6-11 0-0.5-0.1-0.9-0.4-1.2 -0.3-0.3-0.7-0.6-1.2-0.6 -0.1 0-0.1 0-0.2 0C209.3 38.5 209 38.6 208.7 38.9L208.7 38.9 208.7 38.9zM196.7 14.7c-0.1 2.9-0.3 5.8-0.5 8.7 -0.1 0.9 0.7 1.7 1.5 1.8 0.9 0.1 1.6-0.6 1.7-1.5 0.2-2.9 0.3-5.8 0.5-8.7 0-0.9-0.7-1.7-1.5-1.8 0 0-0.1 0-0.1 0C197.4 13.2 196.7 13.9 196.7 14.7L196.7 14.7 196.7 14.7zM175.4 31.8c-0.3 3.7-0.3 7.4-0.1 11 0 0.5 0.1 0.8 0.4 1.2 0.3 0.3 0.7 0.5 1.1 0.6 0.8 0.1 1.7-0.6 1.7-1.5 -0.2-3.7-0.1-7.4 0.1-11 0.1-0.9-0.7-1.7-1.5-1.7 0 0-0.1 0-0.1 0C176.1 30.4 175.4 31 175.4 31.8L175.4 31.8 175.4 31.8zM165.6 65.9c0 0 0 0.1 0 0.1C165.6 65.9 165.6 65.9 165.6 65.9L165.6 65.9 165.6 65.9zM162.2 61.2c0.1 3.4 0.4 6.9 0.9 10.3 0.1 0.9 1.1 1.4 1.9 1.3 0.4-0.1 0.8-0.3 1-0.6 0.2-0.4 0.3-0.8 0.2-1.2 -0.3-1.7-0.5-3.4-0.6-5.2 -0.1-1.4-0.2-2.9-0.2-4.3 0-0.4-0.1-0.8-0.4-1.2 -0.3-0.3-0.7-0.5-1.1-0.6 0 0-0.1 0-0.1 0C162.9 59.8 162.2 60.4 162.2 61.2L162.2 61.2 162.2 61.2zM196.2 246.6c-1 3.2-1.7 6.6-1.9 10.1 -0.1 0.9 0.7 1.7 1.6 1.8 0.9 0.1 1.6-0.6 1.7-1.5 0.1-1.5 0.3-3 0.6-4.4 0.3-1.6 0.7-3.2 1.2-4.8 0.3-0.8-0.2-1.8-1-2.1 -0.2-0.1-0.4-0.1-0.6-0.1C197.1 245.6 196.4 246 196.2 246.6L196.2 246.6 196.2 246.6zM213.5 215.2c-0.8 0.2-1.4 1-1.2 1.8 0.2 0.8 0.3 1.6 0.4 2.4 0.1 1.8 0 3.7-0.3 5.5 0 0.2-0.1 0.4-0.1 0.6 -0.1 0.4-0.1 0.8 0.1 1.2 0.2 0.4 0.5 0.7 0.9 0.8 0.4 0.2 0.8 0.1 1.2 0 0.3-0.2 0.7-0.5 0.8-0.9 0.4-1.7 0.6-3.3 0.6-5 0-1.7-0.2-3.4-0.5-5.1 -0.1-0.7-0.9-1.3-1.6-1.3C213.7 215.2 213.6 215.2 213.5 215.2L213.5 215.2 213.5 215.2zM191.3 206.4c-0.2 2.7-0.2 5.4-0.1 8.1 0 0.5 0.1 0.8 0.4 1.2 0.3 0.3 0.7 0.5 1.1 0.6 0.4 0 0.9-0.1 1.2-0.4 0.3-0.3 0.6-0.7 0.5-1.1 -0.1-2.7-0.1-5.4 0.1-8.1 0.1-0.9-0.7-1.7-1.6-1.8 -0.1 0-0.1 0-0.1 0C192 204.9 191.4 205.6 191.3 206.4L191.3 206.4 191.3 206.4zM209 169.5c-0.3 0.2-0.5 0.7-0.5 1.1 0.3 3.2 0.3 6.3 0.2 9.5 0 0.9 0.6 1.6 1.5 1.7 0.9 0.1 1.6-0.6 1.7-1.4 0.1-3.1 0.1-6.3-0.2-9.5 0-0.4-0.1-0.8-0.4-1.2 -0.3-0.3-0.7-0.5-1.1-0.6 0 0-0.1 0-0.1 0C209.6 169.2 209.2 169.3 209 169.5L209 169.5 209 169.5zM192.1 162.8c-0.3 0.3-0.5 0.7-0.5 1.1 -0.5 3-0.7 6-0.7 9 0 0.9 0.6 1.7 1.6 1.8 0.9 0.1 1.7-0.6 1.7-1.5 0-3 0.2-6 0.7-9 0.1-0.4-0.2-0.9-0.4-1.2 -0.3-0.3-0.7-0.5-1.1-0.6 0 0-0.1 0-0.1 0C192.7 162.4 192.4 162.6 192.1 162.8L192.1 162.8 192.1 162.8zM213.4 122.5c-0.4 0.1-0.8 0.3-1 0.6 -0.2 0.3-0.4 0.8-0.2 1.2 0.5 1.5 0.8 3 1 4.5 0.1 1.5 0 3-0.2 4.4 -0.1 0.4 0.2 0.9 0.4 1.2 0.3 0.3 0.7 0.5 1.1 0.6 0.4 0 0.8-0.1 1.2-0.4 0.3-0.3 0.5-0.6 0.5-1.1 0.5-3.2 0.2-6.6-0.9-9.7 -0.1-0.4-0.3-0.7-0.7-1 -0.3-0.2-0.6-0.3-0.9-0.3C213.6 122.5 213.5 122.5 213.4 122.5L213.4 122.5 213.4 122.5zM192.9 117.6c0 0 0 0.1 0 0.1C192.9 117.7 192.9 117.7 192.9 117.6L192.9 117.6 192.9 117.6zM189.6 108.8c-0.2 4.3 0 8.5 0.6 12.8 0.1 0.9 1.1 1.4 1.9 1.3 0.4-0.1 0.8-0.3 1-0.6 0.2-0.4 0.3-0.8 0.2-1.2 -0.2-1.2-0.3-2.3-0.4-3.5 -0.2-2.8-0.3-5.6-0.1-8.4 0-0.9-0.6-1.7-1.5-1.7 0 0-0.1 0-0.1 0C190.3 107.4 189.7 108 189.6 108.8L189.6 108.8 189.6 108.8zM206.3 77.7c-0.3 0.3-0.4 0.6-0.5 1.1 -0.6 3.5-1 7.1-1.1 10.7 0 0.9 0.6 1.7 1.5 1.7 0.9 0.1 1.6-0.6 1.7-1.4 0.1-3.6 0.4-7.1 1-10.7 0.1-0.4-0.2-0.9-0.4-1.2 -0.3-0.3-0.7-0.5-1.1-0.6 0 0-0.1 0-0.1 0C206.9 77.3 206.6 77.5 206.3 77.7L206.3 77.7 206.3 77.7zM181.4 71.2c-0.3 4.4-0.5 8.7-0.3 13.1 0 0.4 0.1 0.8 0.4 1.1 0.3 0.3 0.7 0.5 1.1 0.6 0.4 0 0.8-0.1 1.1-0.4 0.3-0.2 0.5-0.7 0.5-1 -0.2-4.4-0.1-8.8 0.3-13.1 0.1-0.8-0.6-1.6-1.5-1.7 0 0-0.1 0-0.1 0C182.1 69.8 181.5 70.4 181.4 71.2L181.4 71.2 181.4 71.2zM167.3 106.1c-0.3 0.2-0.7 0.5-0.7 0.8 -0.4 1.9-0.6 3.7-0.7 5.6 -0.1 2 0.1 4 0.3 6 0 0.4 0.4 0.8 0.7 1 0.3 0.2 0.8 0.3 1.2 0.3 0.4-0.1 0.7-0.3 1-0.6 0.2-0.4 0.3-0.7 0.2-1.2 -0.1-0.4-0.1-0.9-0.1-1.3 -0.2-3-0.1-5.9 0.4-8.9 0 0.1 0 0.3-0.1 0.4 0-0.1 0-0.2 0.1-0.3 0.1-0.4 0.1-0.8-0.1-1.2 -0.2-0.4-0.5-0.6-0.9-0.8 -0.2-0.1-0.4-0.1-0.5-0.1C167.7 105.9 167.5 106 167.3 106.1L167.3 106.1 167.3 106.1zM178.9 134.3c-0.4 0.1-0.8 0.3-1 0.7 -0.3 0.4-0.3 0.8-0.2 1.2 0.3 3.3 0.7 6.6 1.1 9.9 0.1 0.9 1.1 1.5 1.9 1.3 0.4-0.1 0.8-0.3 1-0.6 0.2-0.4 0.3-0.8 0.2-1.2 -0.5-3.3-0.9-6.6-1.2-9.9 0-0.4-0.4-0.8-0.7-1 -0.3-0.2-0.6-0.3-0.9-0.3C179.1 134.3 179 134.3 178.9 134.3L178.9 134.3 178.9 134.3zM159.7 162.8c0 3.8 0.2 7.7 1.1 11.5 0.2 0.8 1 1.4 1.9 1.3 0.8-0.2 1.4-1 1.2-1.8 -0.5-1.9-0.8-3.8-1-5.7 -0.1-1.6-0.2-3.3-0.2-4.9 0-0.8-0.6-1.6-1.5-1.7 0 0-0.1 0-0.1 0C160.5 161.4 159.7 162 159.7 162.8L159.7 162.8 159.7 162.8zM170.1 206.4c0 0.1 0 0.1 0 0.2C170.1 206.5 170.1 206.4 170.1 206.4L170.1 206.4 170.1 206.4zM167.3 202.1c-0.3 0.2-0.5 0.7-0.5 1.1 0.2 3.3 0.5 6.5 0.9 9.7 0 0.4 0.4 0.8 0.7 1 0.4 0.2 0.8 0.3 1.2 0.3 0.4-0.1 0.8-0.3 1-0.6 0.3-0.4 0.3-0.8 0.2-1.2 -0.3-2-0.5-4.1-0.7-6.1 -0.1-0.9-0.1-1.8-0.2-2.8 0-0.4-0.1-0.8-0.4-1.1 -0.3-0.3-0.7-0.5-1.1-0.6 0 0-0.1 0-0.1 0C167.9 201.7 167.5 201.9 167.3 202.1L167.3 202.1 167.3 202.1zM156.3 234.3c0 0.1 0 0.1 0 0.2C156.3 234.4 156.3 234.4 156.3 234.3L156.3 234.3 156.3 234.3zM153.5 232.1c-0.3 0.2-0.6 0.7-0.5 1.1 0.2 2.7 0.6 5.4 1.1 8.1 0.2 0.9 1.1 1.5 1.9 1.3 0.9-0.2 1.4-1 1.2-1.9 -0.4-2.2-0.8-4.4-1-6.6 0-0.2 0-0.4 0-0.6 0-0.5-0.1-0.8-0.4-1.2 -0.3-0.3-0.7-0.5-1.1-0.6 0 0-0.1 0-0.1 0C154.2 231.7 153.8 231.9 153.5 232.1L153.5 232.1 153.5 232.1zM168.6 245c-0.4 0.1-0.7 0.3-1 0.6 -0.2 0.4-0.3 0.8-0.2 1.2 0.3 2.7 0.8 5.4 1.4 8.1 0.2 0.8 1 1.4 1.9 1.3 0.8-0.2 1.4-1 1.2-1.8 -0.6-2.7-1.1-5.4-1.4-8.1 0-0.4-0.4-0.8-0.7-1 -0.3-0.2-0.6-0.3-0.9-0.3C168.8 244.9 168.7 245 168.6 245L168.6 245 168.6 245zM163.5 285.6c0 0 0 0.1 0 0.1C163.5 285.7 163.5 285.7 163.5 285.6L163.5 285.6 163.5 285.6zM163.4 285.3c0 0.1 0 0.1 0 0.2C163.5 285.4 163.4 285.4 163.4 285.3L163.4 285.3 163.4 285.3zM160.8 283.5c-0.3 0.2-0.5 0.7-0.5 1.1 0.2 3.2 0.7 6.3 1.5 9.4 0.2 0.8 1 1.4 1.9 1.3 0.8-0.2 1.4-1 1.2-1.8 -0.6-2.6-1.1-5.2-1.3-7.9 0-0.2 0-0.5-0.1-0.7 0-0.4-0.1-0.8-0.4-1.2 -0.3-0.3-0.7-0.5-1.1-0.6 0 0-0.1 0-0.1 0C161.4 283.1 161 283.2 160.8 283.5L160.8 283.5 160.8 283.5zM154.2 315.9c-0.8 0.2-1.4 1-1.2 1.9 0.9 3.5 1.9 7 3.1 10.4 0.1 0.4 0.3 0.8 0.7 1 0.4 0.3 0.8 0.4 1.2 0.3 0.4-0.1 0.8-0.3 1-0.6 0.2-0.3 0.3-0.8 0.2-1.2 -1.1-3.4-2.2-6.9-3.1-10.4 -0.2-0.7-0.9-1.3-1.6-1.3C154.4 315.9 154.3 315.9 154.2 315.9L154.2 315.9 154.2 315.9zM142.5 360c-0.3 0.2-0.5 0.7-0.5 1.1 0.2 3.6 0.7 7.2 1.7 10.8 0.2 0.9 1 1.5 1.9 1.3 0.8-0.2 1.5-1 1.2-1.9 -0.8-2.8-1.3-5.6-1.6-8.5 0-0.5-0.1-1-0.1-1.5 0-0.4-0.1-0.8-0.4-1.2 -0.3-0.3-0.7-0.5-1.1-0.6 0 0-0.1 0-0.1 0C143.2 359.7 142.8 359.8 142.5 360L142.5 360 142.5 360zM127.5 393.5c-0.8 0.1-1.3 0.9-1.1 1.8 0.6 2.3 1.2 4.6 2 6.8 0.1 0.4 0.3 0.7 0.7 1 0.3 0.2 0.8 0.3 1.2 0.3 0.4-0.1 0.7-0.3 1-0.6 0.2-0.3 0.3-0.8 0.2-1.2 -0.8-2.2-1.4-4.5-2-6.8 -0.2-0.7-0.8-1.2-1.5-1.2C127.7 393.5 127.6 393.5 127.5 393.5L127.5 393.5 127.5 393.5zM94.6 405.8c-0.9 0.2-1.5 1-1.2 1.9 0.4 1.8 1.1 3.6 1.8 5.3 0.4 0.8 1.5 1.2 2.2 0.8 0.8-0.4 1.1-1.4 0.7-2.2 -0.3-0.6-0.5-1.1-0.7-1.7 -0.3-0.9-0.6-1.8-0.8-2.8 -0.2-0.8-0.9-1.4-1.7-1.4C94.8 405.8 94.7 405.8 94.6 405.8L94.6 405.8 94.6 405.8zM66.7 402.8c-0.8 0.4-1.1 1.4-0.7 2.2 1.3 2.5 2.6 5 3.9 7.4 0.4 0.8 1.4 1.2 2.2 0.8 0.8-0.4 1.1-1.4 0.7-2.2 -1.3-2.5-2.6-5-3.9-7.4 -0.3-0.6-0.9-1-1.6-1C67.2 402.7 66.9 402.7 66.7 402.8L66.7 402.8 66.7 402.8zM106.5 382c-0.8 0.1-1.3 1-1.2 1.8 0.5 2.9 1.2 5.7 2.1 8.5 0.1 0.4 0.3 0.7 0.7 1 0.3 0.2 0.8 0.3 1.2 0.3 0.8-0.1 1.4-1 1.2-1.8 -0.8-2.8-1.5-5.6-2.1-8.5 -0.1-0.7-0.9-1.3-1.6-1.3C106.7 381.9 106.6 382 106.5 382L106.5 382 106.5 382zM118.3 358.4c-0.4 0.1-0.8 0.3-1 0.7 -0.3 0.4-0.3 0.8-0.2 1.2 0.3 2.2 0.7 4.4 1.4 6.6 0.2 0.9 1 1.5 2 1.3 0.8-0.2 1.5-1 1.2-1.9 -0.6-2.2-1.1-4.4-1.4-6.6 0-0.4-0.4-0.8-0.7-1 -0.3-0.2-0.6-0.3-1-0.3C118.5 358.4 118.4 358.4 118.3 358.4L118.3 358.4 118.3 358.4zM128.4 316.9c-0.8 0.2-1.4 1-1.2 1.9 0.8 3 1.7 5.9 2.7 8.9 0.1 0.4 0.3 0.8 0.7 1 0.4 0.3 0.8 0.4 1.2 0.3 0.4-0.1 0.8-0.3 1-0.6 0.2-0.3 0.4-0.8 0.2-1.2 -1-2.9-1.9-5.9-2.7-8.8 -0.2-0.8-0.9-1.3-1.6-1.3C128.6 316.9 128.5 316.9 128.4 316.9L128.4 316.9 128.4 316.9zM107.1 336.1c0 0.1 0 0.1 0.1 0.2C107.1 336.2 107.1 336.2 107.1 336.1L107.1 336.1 107.1 336.1zM104 331.2c-0.8 0.1-1.4 1-1.2 1.8 0.9 2.8 1.9 5.6 3 8.4 0.3 0.8 1.4 1.1 2.1 0.8 0.4-0.2 0.6-0.5 0.8-0.9 0.1-0.4 0.1-0.8-0.1-1.2 -0.5-1.2-1-2.4-1.4-3.6 -0.5-1.3-0.9-2.7-1.3-4 -0.1-0.4-0.3-0.7-0.7-1 -0.3-0.2-0.6-0.3-0.9-0.3C104.2 331.2 104.1 331.2 104 331.2L104 331.2 104 331.2zM85.6 358c-0.8 0.1-1.4 1-1.2 1.8 0.8 2.9 1.7 5.7 2.5 8.6 0.2 0.8 1 1.4 1.9 1.3 0.8-0.1 1.4-1 1.2-1.8 -0.8-2.9-1.7-5.7-2.5-8.6 -0.2-0.7-0.8-1.3-1.6-1.3C85.7 358 85.6 358 85.6 358L85.6 358 85.6 358zM77.5 384.3c-0.9 0.2-1.4 1-1.2 1.9 0.4 2.7 1.2 5.3 2.4 7.7 0.4 0.8 1.4 1.1 2.2 0.8 0.8-0.4 1.1-1.4 0.7-2.2 -0.3-0.7-0.6-1.4-0.9-2.1 -0.5-1.6-1-3.2-1.2-4.8 -0.1-0.8-0.9-1.3-1.7-1.3C77.7 384.2 77.6 384.2 77.5 384.3L77.5 384.3 77.5 384.3zM53.3 368.7c-0.7 0.4-1.1 1.4-0.7 2.1 1.6 2.7 3.2 5.4 4.6 8.1 0.4 0.8 1.4 1.1 2.1 0.8 0.8-0.4 1.1-1.3 0.7-2.1 -1.4-2.8-2.9-5.5-4.6-8.2 -0.2-0.4-0.5-0.7-0.9-0.8 -0.2-0.1-0.4-0.1-0.6-0.1C53.7 368.6 53.5 368.6 53.3 368.7L53.3 368.7 53.3 368.7zM63.5 351.7c-0.4 0.1-0.8 0.3-1 0.6 -0.2 0.3-0.4 0.8-0.2 1.2 1.2 3.4 2.3 6.9 3.3 10.4 0.2 0.8 1 1.4 1.9 1.3 0.8-0.1 1.4-1 1.2-1.8 -0.9-3.5-2-6.9-3.2-10.4 -0.1-0.4-0.3-0.8-0.7-1 -0.3-0.2-0.6-0.3-1-0.3C63.7 351.7 63.6 351.7 63.5 351.7L63.5 351.7 63.5 351.7zM82.4 330.5c-0.4 0.1-0.8 0.3-1 0.7 -0.2 0.3-0.4 0.8-0.2 1.2 1 2.8 1.8 5.7 2.5 8.6 0.2 0.9 1.1 1.5 1.9 1.3 0.8-0.2 1.4-1 1.2-1.9 -0.7-2.9-1.6-5.7-2.5-8.6 -0.1-0.4-0.3-0.8-0.7-1 -0.3-0.2-0.6-0.3-1-0.3C82.5 330.5 82.5 330.5 82.4 330.5L82.4 330.5 82.4 330.5zM33.9 325.6c-0.9 0.2-1.5 1-1.2 1.9 1 4.3 2.8 8.4 5.2 12.1 0.2 0.4 0.5 0.7 0.9 0.8 0.4 0.2 0.9 0.1 1.3 0 0.7-0.4 1.2-1.4 0.7-2.2 -1.5-2.4-2.7-4.9-3.7-7.6 -0.4-1.2-0.8-2.5-1.1-3.7 -0.2-0.8-0.9-1.3-1.7-1.3C34.1 325.6 34 325.6 33.9 325.6L33.9 325.6 33.9 325.6zM54.8 322.3c-0.4 0.2-0.7 0.5-0.8 0.9 -0.2 0.5-0.1 0.9 0.1 1.3 0.1 0.3 0.2 0.5 0.3 0.8 0.7 2 1.4 4 2 6.1 0.1 0.4 0.3 0.8 0.7 1.1 0.4 0.3 0.9 0.4 1.3 0.3 0.9-0.2 1.5-1.1 1.3-2 -0.8-2.6-1.6-5.2-2.6-7.7 -0.1-0.4-0.6-0.7-1-0.9 -0.2-0.1-0.4-0.1-0.6-0.1C55.2 322.2 55 322.2 54.8 322.3L54.8 322.3 54.8 322.3zM37.7 304.9c-0.9 0.2-1.4 1-1.2 1.9 0.6 3 1.7 6 3.2 8.6 0.4 0.8 1.4 1.2 2.2 0.8 0.7-0.4 1.1-1.4 0.7-2.1 -0.7-1.3-1.3-2.6-1.9-3.9 -0.5-1.3-0.8-2.6-1.1-3.9 -0.1-0.8-0.9-1.3-1.7-1.3C37.8 304.9 37.8 304.9 37.7 304.9L37.7 304.9 37.7 304.9zM17.3 289.4c-0.8 0.1-1.4 1-1.2 1.8 0.7 3.3 1.9 6.5 3.5 9.6 0.4 0.8 1.3 1.1 2.1 0.7 0.8-0.4 1.1-1.3 0.7-2.1 -0.7-1.4-1.4-2.8-1.9-4.3 -0.5-1.5-0.9-3-1.3-4.5 -0.2-0.8-0.9-1.3-1.6-1.3C17.4 289.4 17.4 289.4 17.3 289.4L17.3 289.4 17.3 289.4zM19.4 257.3c-0.9 0.2-1.5 1-1.2 1.9 0.8 3 1.6 6 2.6 9 0.1 0.4 0.3 0.8 0.7 1 0.4 0.3 0.8 0.4 1.3 0.3 0.4-0.1 0.8-0.3 1-0.7 0.2-0.3 0.4-0.8 0.2-1.2 -1-3-1.8-6-2.6-9 -0.2-0.8-0.9-1.4-1.7-1.4C19.6 257.3 19.5 257.3 19.4 257.3L19.4 257.3 19.4 257.3zM35.2 276.2c-0.7 0.4-1.1 1.4-0.7 2.2 1.4 2.4 2.6 4.9 3.5 7.5 0.3 0.9 0.6 1.8 0.9 2.7 0.1 0.4 0.3 0.8 0.7 1 0.4 0.2 0.8 0.4 1.2 0.3 0.8-0.2 1.5-1 1.2-1.9 -1.2-3.8-2.7-7.5-4.7-11 -0.3-0.6-0.9-0.9-1.5-0.9C35.7 276 35.4 276.1 35.2 276.2L35.2 276.2 35.2 276.2zM61.6 297.4c-0.9 0.2-1.4 1-1.2 1.9 0.8 3.6 1.8 7.2 3.1 10.8 0.1 0.4 0.6 0.7 0.9 0.8 0.4 0.2 0.9 0.1 1.3 0 0.4-0.2 0.7-0.5 0.8-0.9 0.1-0.5 0.1-0.8-0.1-1.3 -0.1-0.2-0.1-0.3-0.2-0.5 -1.1-3.1-1.9-6.3-2.7-9.5 -0.2-0.8-0.9-1.4-1.7-1.4C61.8 297.4 61.7 297.4 61.6 297.4L61.6 297.4 61.6 297.4zM85.6 298.3c-0.8 0.1-1.4 1-1.2 1.8 0.9 3.3 2 6.5 3.1 9.7 0.1 0.4 0.3 0.7 0.7 1 0.4 0.2 0.8 0.3 1.2 0.3 0.4-0.1 0.7-0.3 1-0.6 0.2-0.3 0.3-0.8 0.2-1.2 -1.1-3.2-2.1-6.5-3.1-9.7 -0.2-0.7-0.8-1.3-1.6-1.3C85.8 298.3 85.7 298.3 85.6 298.3L85.6 298.3 85.6 298.3zM134.4 289.5c-0.4 0.1-0.8 0.3-1 0.7 -0.3 0.4-0.3 0.8-0.2 1.2 0.4 3.7 1.2 7.3 1.8 11 0.2 0.9 1.1 1.5 2 1.3 0.9-0.2 1.4-1 1.2-1.9 -0.6-3.7-1.4-7.3-1.8-11 0-0.4-0.4-0.8-0.7-1 -0.3-0.2-0.6-0.3-1-0.3C134.6 289.5 134.5 289.5 134.4 289.5L134.4 289.5 134.4 289.5zM104.9 284.1c-0.8 0.2-1.5 1-1.2 1.9 1 3.5 2.3 7 3.6 10.4 0.1 0.4 0.6 0.7 0.9 0.8 0.4 0.2 0.9 0.1 1.3-0.1 0.4-0.2 0.7-0.5 0.8-0.9 0.1-0.4 0.1-0.8-0.1-1.3 -0.5-1.4-1-2.7-1.5-4.1 0 0 0 0.1 0 0.1 -0.7-1.9-1.3-3.7-1.8-5.6 -0.2-0.8-0.9-1.3-1.6-1.3C105.1 284.1 105 284.1 104.9 284.1L104.9 284.1 104.9 284.1zM136.3 247.7c-0.3 0.3-0.6 0.7-0.5 1.1 0.1 2 0.4 3.9 0.7 5.9 0.4 2 0.8 4 1.3 6 0.2 0.9 1.1 1.5 2 1.3 0.9-0.2 1.4-1 1.3-1.9 -0.7-3.4-1.5-6.8-1.9-10.3 0-0.3 0-0.5-0.1-0.8 0-0.5-0.1-0.8-0.4-1.2 -0.3-0.3-0.7-0.6-1.1-0.6 0 0-0.1 0-0.1 0C136.9 247.3 136.5 247.4 136.3 247.7L136.3 247.7 136.3 247.7zM118 259.9c0 0 0 0 0 0 0 0 0 0 0-0.1C118 259.8 118 259.8 118 259.9L118 259.9 118 259.9zM114 251.9c-0.9 0.2-1.5 1.1-1.3 2 0.9 3.7 2.1 7.3 3.6 10.8 0.4 0.8 1.5 1.2 2.3 0.8 0.8-0.4 1.1-1.4 0.7-2.2 -0.5-1.1-0.9-2.2-1.4-3.3 0 0.1 0 0.1 0.1 0.2 0-0.1 0-0.1-0.1-0.2 0-0.1-0.1-0.2-0.1-0.2 0 0.1 0.1 0.1 0.1 0.2 -0.8-2.2-1.4-4.3-1.9-6.6 -0.2-0.8-0.9-1.4-1.7-1.4C114.2 251.9 114.1 251.9 114 251.9L114 251.9 114 251.9zM64.3 58.5c-0.9 0.2-1.5 1.1-1.3 2 0.8 3.7 1.8 7.3 2.9 10.9 0.1 0.4 0.3 0.8 0.7 1.1 0.4 0.3 0.8 0.4 1.3 0.3 0.8-0.2 1.5-1.1 1.3-1.9 -1.1-3.6-2.1-7.2-2.8-10.9 -0.2-0.8-0.9-1.4-1.7-1.4C64.5 58.5 64.4 58.5 64.3 58.5L64.3 58.5 64.3 58.5zM32.8 106.4c-0.1 3.2 0.3 6.5 1.2 9.7 0.1 0.4 0.3 0.8 0.7 1 0.4 0.3 0.8 0.4 1.2 0.3 0.8-0.1 1.4-1 1.2-1.8 -0.6-1.8-0.9-3.7-1.1-5.6 -0.1-1.1-0.1-2.2-0.1-3.3 0-0.8-0.6-1.6-1.5-1.7 0 0-0.1 0-0.1 0C33.5 105 32.9 105.6 32.8 106.4L32.8 106.4 32.8 106.4zM87.7 264.6c0 0 0 0.1 0 0.1C87.7 264.7 87.7 264.6 87.7 264.6L87.7 264.6 87.7 264.6zM84.2 257.7c-0.8 0.2-1.4 1-1.2 1.8 0.6 2.9 1.4 5.7 2.6 8.4 0.3 0.8 1.4 1.1 2.2 0.8 0.4-0.2 0.7-0.5 0.8-0.9 0.1-0.4 0.1-0.8-0.1-1.2 -0.3-0.7-0.6-1.4-0.8-2.1 -0.6-1.8-1.1-3.6-1.5-5.5 -0.2-0.7-0.9-1.3-1.6-1.3C84.4 257.7 84.3 257.7 84.2 257.7L84.2 257.7 84.2 257.7zM120.1 214.8c-0.4 0.1-0.8 0.3-1 0.7 -0.3 0.4-0.3 0.8-0.2 1.3 0.3 2.1 0.8 4.2 1.6 6.3 0.2 0.4 0.3 0.8 0.7 1.1 0.4 0.3 0.8 0.4 1.3 0.3 0.4-0.1 0.8-0.3 1-0.7 0.2-0.3 0.4-0.9 0.2-1.3 -0.7-2.1-1.2-4.2-1.5-6.3 -0.1-0.8-0.9-1.4-1.7-1.4C120.3 214.8 120.2 214.8 120.1 214.8L120.1 214.8 120.1 214.8zM93.6 228.1c-0.4 0.2-0.7 0.5-0.8 0.9 -0.2 0.5-0.1 0.9 0.1 1.3 1.1 2.8 2.2 5.6 3.4 8.4 0.4 0.8 1.5 1.2 2.3 0.8 0.4-0.2 0.7-0.5 0.8-0.9 0.1-0.5 0.1-0.9-0.1-1.3 -1.1-2.8-2.2-5.6-3.3-8.4 -0.2-0.4-0.6-0.7-1-0.9 -0.2-0.1-0.4-0.1-0.6-0.1C94.1 227.9 93.8 227.9 93.6 228.1L93.6 228.1 93.6 228.1zM66.5 218.7c-0.4 0.1-0.8 0.3-1 0.7 -0.3 0.4-0.3 0.8-0.2 1.2 0.4 3.4 1.6 6.7 3.5 9.6 0.3 0.4 0.5 0.7 1 0.8 0.4 0.2 0.9 0.1 1.3 0 0.4-0.2 0.7-0.5 0.8-0.9 0.1-0.4 0.1-0.9-0.1-1.3 -0.9-1.3-1.6-2.8-2.2-4.3 -0.5-1.5-0.9-3-1.1-4.6 -0.1-0.4-0.4-0.8-0.7-1 -0.3-0.2-0.6-0.3-1-0.3C66.7 218.6 66.6 218.6 66.5 218.7L66.5 218.7zM111.3 181.2c-0.8 0.1-1.4 1-1.2 1.8 0.9 3.3 1.8 6.6 2.7 9.9 0.2 0.8 1 1.4 1.9 1.3 0.8-0.1 1.4-1 1.2-1.8 -0.9-3.3-1.9-6.6-2.8-9.9 -0.2-0.7-0.8-1.3-1.6-1.3C111.4 181.2 111.4 181.2 111.3 181.2L111.3 181.2 111.3 181.2zM86 198c-0.9 0.2-1.5 1.1-1.3 2 0.4 1.9 1.1 3.8 2 5.6 0.5 0.8 1.5 1.2 2.3 0.8 0.8-0.4 1.2-1.4 0.7-2.3 -0.4-0.7-0.7-1.5-1-2.2 -0.3-0.8-0.5-1.6-0.7-2.5 -0.2-0.8-1-1.4-1.8-1.4C86.2 198 86.1 198 86 198L86 198 86 198zM57.4 188.6c-0.9 0.2-1.6 1.1-1.3 2 1 3.3 2.1 6.7 3.3 10 0.1 0.3 0.3 0.5 0.6 0.7 0.4 0.3 0.9 0.4 1.3 0.3 0.4-0.1 0.8-0.3 1.1-0.7 0.2-0.3 0.4-0.9 0.2-1.3 -1.1-3.2-2.2-6.4-3.2-9.6 -0.1-0.4-0.3-0.8-0.7-1.1 -0.3-0.2-0.7-0.3-1-0.3C57.6 188.6 57.5 188.6 57.4 188.6L57.4 188.6 57.4 188.6zM72.2 161.4c-0.8 0.1-1.5 1-1.2 1.9 1 4 2.5 7.9 3.2 12 0.2 0.9 1.1 1.5 2 1.3 0.9-0.2 1.4-1 1.2-1.9 -0.7-4.1-2.2-8-3.2-12 -0.2-0.8-0.9-1.3-1.7-1.3C72.4 161.3 72.3 161.3 72.2 161.4L72.2 161.4 72.2 161.4zM99.3 126.8c-0.8 0.2-1.4 1-1.2 1.9 0.7 2.8 1.2 5.6 1.6 8.4 0.1 0.9 1.1 1.5 2 1.3 0.4-0.1 0.8-0.3 1-0.7 0.3-0.4 0.3-0.8 0.2-1.2 -0.4-2.8-1-5.6-1.7-8.4 -0.2-0.8-0.9-1.3-1.6-1.3C99.5 126.8 99.4 126.8 99.3 126.8L99.3 126.8 99.3 126.8zM90.6 157.5c-0.4 0.1-0.8 0.3-1 0.7 -0.3 0.4-0.3 0.8-0.2 1.3 0.5 3.3 1.3 6.6 2.5 9.7 0.1 0.3 0.3 0.5 0.6 0.7 0.4 0.3 0.8 0.4 1.3 0.3 0.4-0.1 0.8-0.3 1-0.7 0.2-0.3 0.4-0.9 0.2-1.3 -1.1-3-1.9-6.1-2.4-9.3 -0.1-0.8-0.9-1.4-1.7-1.4C90.8 157.5 90.7 157.5 90.6 157.5L90.6 157.5 90.6 157.5zM49.9 139.1c-0.9 0.2-1.5 1.1-1.3 2.1 0.7 3.2 1.7 6.4 3.1 9.4 0.4 0.9 1.6 1.2 2.4 0.8 0.9-0.4 1.1-1.4 0.7-2.3 -0.3-0.8-0.7-1.6-1-2.5 -0.7-2-1.3-4-1.8-6.1 -0.2-0.8-1-1.5-1.8-1.5C50.1 139.1 50 139.1 49.9 139.1L49.9 139.1 49.9 139.1zM84.1 89.6c0-0.1 0-0.1-0.1-0.2C84.1 89.5 84.1 89.6 84.1 89.6L84.1 89.6 84.1 89.6zM80.5 83.6c-0.4 0.1-0.8 0.3-1 0.7 -0.2 0.3-0.4 0.9-0.2 1.3 0.9 2.9 1.9 5.7 3 8.5 0.2 0.4 0.6 0.7 1 0.9 0.4 0.2 0.9 0.1 1.3-0.1 0.4-0.2 0.7-0.5 0.8-0.9 0.2-0.5 0.1-0.9-0.1-1.3 -0.4-1.1-0.9-2.3-1.3-3.4 0 0.1 0.1 0.2 0.1 0.2 -0.5-1.5-1.1-3-1.6-4.5 -0.1-0.4-0.3-0.8-0.7-1.1 -0.3-0.2-0.6-0.3-1-0.3C80.7 83.6 80.6 83.6 80.5 83.6L80.5 83.6 80.5 83.6zM74 120.4c-0.9 0.2-1.5 1.1-1.3 2 0.7 3.3 1.7 6.6 2.9 9.8 0.2 0.4 0.6 0.7 1 0.9 0.4 0.2 0.9 0.1 1.3-0.1 0.4-0.2 0.7-0.5 0.8-1 0.2-0.5 0.1-0.9-0.1-1.3 -0.1-0.2-0.2-0.4-0.2-0.6 0.1 0.1 0.1 0.3 0.2 0.4 -1-2.9-1.9-5.7-2.5-8.7 -0.2-0.8-1-1.4-1.8-1.4C74.2 120.3 74.1 120.3 74 120.4L74 120.4 74 120.4zM49.2 113c-0.9 0.2-1.5 1.1-1.3 2 0.7 2.4 1.5 4.7 2.5 6.9 0.4 0.8 1.5 1.2 2.3 0.8 0.4-0.2 0.7-0.5 0.8-0.9 0.1-0.4 0.1-0.9-0.1-1.3 -0.4-0.9-0.7-1.7-1-2.6 -0.4-1.2-0.8-2.3-1.1-3.5 -0.2-0.8-0.9-1.4-1.7-1.4C49.4 113 49.3 113 49.2 113L49.2 113 49.2 113zM63.4 86.3c-0.8 0.1-1.5 1-1.2 1.9 0.8 2.7 1.5 5.5 2.1 8.3 0.2 0.9 1.1 1.5 2 1.3 0.9-0.2 1.4-1 1.3-1.9 -0.6-2.8-1.3-5.6-2.1-8.3 -0.1-0.4-0.3-0.8-0.7-1 -0.3-0.2-0.6-0.3-1-0.3C63.6 86.3 63.5 86.3 63.4 86.3L63.4 86.3 63.4 86.3z" fill="#2B3E1A"/></svg>